<?xml version="1.0" encoding="UTF-8" standalone="no"?>
<!-- Created with Inkscape (http://www.inkscape.org/) -->

<svg
   xmlns:dc="http://purl.org/dc/elements/1.1/"
   xmlns:cc="http://creativecommons.org/ns#"
   xmlns:rdf="http://www.w3.org/1999/02/22-rdf-syntax-ns#"
   xmlns:svg="http://www.w3.org/2000/svg"
   xmlns="http://www.w3.org/2000/svg"
   xmlns:sodipodi="http://sodipodi.sourceforge.net/DTD/sodipodi-0.dtd"
   xmlns:inkscape="http://www.inkscape.org/namespaces/inkscape"
   width="508.93314"
   height="506.31778"
   id="svg24108"
   sodipodi:version="0.32"
   inkscape:version="0.46+devel r20967"
   sodipodi:docname="spiders web.svg"
   inkscape:output_extension="org.inkscape.output.svg.inkscape"
   inkscape:export-filename="C:\Documents and Settings\Tim H\My Documents\Tom\SVG\TO_OCAL\spiders web.png"
   inkscape:export-xdpi="90"
   inkscape:export-ydpi="90"
   version="1.0">
  <title
     id="title24263">spidersweb</title>
  <defs
     id="defs24110">
    <inkscape:perspective
       sodipodi:type="inkscape:persp3d"
       inkscape:vp_x="0 : 526.18109 : 1"
       inkscape:vp_y="0 : 1000 : 0"
       inkscape:vp_z="744.09448 : 526.18109 : 1"
       inkscape:persp3d-origin="372.04724 : 350.78739 : 1"
       id="perspective24116" />
    <inkscape:perspective
       id="perspective24035"
       inkscape:persp3d-origin="0.5 : 0.33333333 : 1"
       inkscape:vp_z="1 : 0.5 : 1"
       inkscape:vp_y="0 : 1000 : 0"
       inkscape:vp_x="0 : 0.5 : 1"
       sodipodi:type="inkscape:persp3d" />
  </defs>
  <sodipodi:namedview
     id="base"
     pagecolor="#ffffff"
     bordercolor="#666666"
     borderopacity="1.0"
     inkscape:pageopacity="0.0"
     inkscape:pageshadow="2"
     inkscape:zoom="0.35"
     inkscape:cx="312.32371"
     inkscape:cy="284.58747"
     inkscape:document-units="px"
     inkscape:current-layer="layer1"
     showgrid="false"
     inkscape:window-width="616"
     inkscape:window-height="464"
     inkscape:window-x="239"
     inkscape:window-y="239" />
  <metadata
     id="metadata24113">
    <rdf:RDF>
      <cc:Work
         rdf:about="">
        <dc:format>image/svg+xml</dc:format>
        <dc:type
           rdf:resource="http://purl.org/dc/dcmitype/StillImage" />
        <cc:license
           rdf:resource="http://creativecommons.org/licenses/publicdomain/" />
        <dc:title>spidersweb</dc:title>
        <dc:description>A very simple styalised spiders web. black and white outline.</dc:description>
        <dc:subject>
          <rdf:Bag>
            <rdf:li>web</rdf:li>
            <rdf:li>thread</rdf:li>
            <rdf:li>black and white</rdf:li>
            <rdf:li>spider</rdf:li>
            <rdf:li>spiders web</rdf:li>
            <rdf:li>cobweb</rdf:li>
          </rdf:Bag>
        </dc:subject>
      </cc:Work>
      <cc:License
         rdf:about="http://creativecommons.org/licenses/publicdomain/">
        <cc:permits
           rdf:resource="http://creativecommons.org/ns#Reproduction" />
        <cc:permits
           rdf:resource="http://creativecommons.org/ns#Distribution" />
        <cc:permits
           rdf:resource="http://creativecommons.org/ns#DerivativeWorks" />
      </cc:License>
    </rdf:RDF>
  </metadata>
  <g
     inkscape:label="Layer 1"
     inkscape:groupmode="layer"
     id="layer1"
     transform="translate(-31.24772,-242.06043)">
    <g
       id="g11256"
       transform="translate(-618.0532,-491.33756)">
      <g
         transform="translate(766.97337,-208.94283)"
         id="g11136">
        <path
           id="path11098"
           d="m 139.0105,1194.5551 250.71428,0"
           style="fill:none;stroke:#1a1a1a;stroke-width:3;stroke-linecap:round;stroke-miterlimit:4;stroke-opacity:1;stroke-dasharray:none;stroke-dashoffset:0" />
        <path
           id="path11100"
           d="m 139.0105,1194.5551 242.1714,-64.8896"
           style="fill:none;stroke:#1a1a1a;stroke-width:3;stroke-linecap:round;stroke-miterlimit:4;stroke-opacity:1;stroke-dasharray:none;stroke-dashoffset:0" />
        <path
           id="path11102"
           d="M 139.0105,1194.5551 356.13545,1069.198"
           style="fill:none;stroke:#1a1a1a;stroke-width:3;stroke-linecap:round;stroke-miterlimit:4;stroke-opacity:1;stroke-dasharray:none;stroke-dashoffset:0" />
        <path
           id="path11104"
           d="M 139.0105,1194.5551 316.29229,1017.2734"
           style="fill:none;stroke:#1a1a1a;stroke-width:3;stroke-linecap:round;stroke-miterlimit:4;stroke-opacity:1;stroke-dasharray:none;stroke-dashoffset:0" />
        <path
           id="path11106"
           d="M 139.0105,1194.5551 264.3676,977.43012"
           style="fill:none;stroke:#1a1a1a;stroke-width:3;stroke-linecap:round;stroke-miterlimit:4;stroke-opacity:1;stroke-dasharray:none;stroke-dashoffset:0" />
        <path
           id="path11108"
           d="M 139.0105,1194.5551 203.90013,952.38369"
           style="fill:none;stroke:#1a1a1a;stroke-width:3;stroke-linecap:round;stroke-miterlimit:4;stroke-opacity:1;stroke-dasharray:none;stroke-dashoffset:0" />
        <path
           style="fill:none;stroke:#1a1a1a;stroke-width:3;stroke-linecap:round;stroke-miterlimit:4;stroke-opacity:1;stroke-dasharray:none;stroke-dashoffset:0"
           d="m 389.72478,1194.5551 c -18.09695,-23.8083 -16.9867,-44.8728 -8.54288,-64.8896 -37.42296,-31.7855 -22.41372,-42.5981 -25.04645,-60.4675 -41.39864,-11.6847 -33.88395,-33.152 -39.84316,-51.9246 -43.68916,2.5475 -44.7186,-20.5009 -51.92469,-39.84328 -23.63387,8.08218 -50.62695,-6.86759 -60.46747,-25.04643 -27.99916,18.6295 -50.66541,15.92737 -67.88963,-8.54287"
           id="path11110"
           sodipodi:nodetypes="ccccccc" />
        <path
           style="fill:none;stroke:#1a1a1a;stroke-width:3;stroke-linecap:round;stroke-miterlimit:4;stroke-opacity:1;stroke-dasharray:none;stroke-dashoffset:0"
           d="m 136.0105,1194.5551 0,-250.71428"
           id="path11114" />
        <path
           style="fill:none;stroke:#1a1a1a;stroke-width:3;stroke-linecap:round;stroke-miterlimit:4;stroke-opacity:1;stroke-dasharray:none;stroke-dashoffset:0"
           d="m 360.25716,1194.7283 c -16.00743,-21.0593 -15.02537,-39.6917 -7.5565,-57.3973 -33.10202,-28.1155 -19.82578,-37.6796 -22.15453,-53.4858 -36.61866,-10.3356 -29.97163,-29.3242 -35.24278,-45.9293 -38.64471,2.2534 -39.55529,-18.1338 -45.92934,-35.2428 -20.90505,7.1489 -44.78145,-6.07469 -53.48576,-22.15456 -24.76632,16.4785 -44.81547,14.08836 -60.05094,-7.55649"
           id="path11120"
           sodipodi:nodetypes="ccccccc" />
        <path
           style="fill:none;stroke:#1a1a1a;stroke-width:3;stroke-linecap:round;stroke-miterlimit:4;stroke-opacity:1;stroke-dasharray:none;stroke-dashoffset:0"
           d="m 329.46977,1194.9092 c -13.82434,-18.1872 -12.97621,-34.2785 -6.52594,-49.5694 -28.58756,-24.2811 -17.12194,-32.5409 -19.13309,-46.1914 -31.6246,-8.926 -25.88409,-25.3249 -30.43636,-39.6654 -33.37433,1.946 -34.16073,-15.6607 -39.66549,-30.4364 -18.05401,6.174 -38.67414,-5.2462 -46.19136,-19.1331 -21.38867,14.2311 -38.70352,12.167 -51.86117,-6.526"
           id="path11122"
           sodipodi:nodetypes="ccccccc" />
        <path
           style="fill:none;stroke:#1a1a1a;stroke-width:3;stroke-linecap:round;stroke-miterlimit:4;stroke-opacity:1;stroke-dasharray:none;stroke-dashoffset:0"
           d="m 300.34652,1195.0804 c -11.75924,-15.4704 -11.03781,-29.1579 -5.55109,-42.1647 -24.31712,-20.6539 -14.56424,-27.6799 -16.27497,-39.2912 -26.90047,-7.5927 -22.01749,-21.5419 -25.88974,-33.7402 -28.38883,1.6554 -29.05775,-13.3213 -33.74021,-25.8898 -15.35708,5.2517 -32.89695,-4.4625 -39.29123,-16.275 -18.19361,12.1053 -32.92194,10.3495 -44.11409,-5.551"
           id="path11124"
           sodipodi:nodetypes="ccccccc" />
        <path
           sodipodi:nodetypes="ccccccc"
           id="path11134"
           d="m 254.05067,1195.2516 c -8.46926,-11.1417 -7.94967,-20.9994 -3.99801,-30.3668 -17.51371,-14.8749 -10.48948,-19.9349 -11.72158,-28.2973 -19.3743,-5.4682 -15.85747,-15.5144 -18.64634,-24.2995 -20.44625,1.1922 -20.92802,-9.594 -24.30042,-18.6457 -11.06051,3.7823 -23.69309,-3.2139 -28.29839,-11.7211 -13.10343,8.7181 -23.71109,7.4536 -31.77191,-3.9979"
           style="fill:none;stroke:#1a1a1a;stroke-width:3;stroke-linecap:round;stroke-miterlimit:4;stroke-opacity:1;stroke-dasharray:none;stroke-dashoffset:0" />
        <path
           style="fill:none;stroke:#1a1a1a;stroke-width:3;stroke-linecap:round;stroke-miterlimit:4;stroke-opacity:1;stroke-dasharray:none;stroke-dashoffset:0"
           d="m 274.28918,1195.2516 c -9.91283,-13.0413 -9.30468,-24.5798 -4.67947,-35.5443 -20.49889,-17.411 -12.2774,-23.3338 -13.7195,-33.122 -22.67663,-6.4004 -18.56036,-18.1595 -21.82459,-28.4425 -23.93129,1.3955 -24.49518,-11.2297 -28.4424,-21.8248 -12.94575,4.4272 -27.73154,-3.7618 -33.12182,-13.7196 -15.33688,10.2046 -27.75261,8.7246 -37.18739,-4.6794"
           id="path11126"
           sodipodi:nodetypes="ccccccc" />
        <path
           style="fill:none;stroke:#1a1a1a;stroke-width:3;stroke-linecap:round;stroke-miterlimit:4;stroke-opacity:1;stroke-dasharray:none;stroke-dashoffset:0"
           d="m 227.03626,1195.5113 c -6.5609,-8.6315 -6.15839,-16.2683 -3.09715,-23.5252 -13.56738,-11.5235 -8.12591,-15.4436 -9.08038,-21.922 -15.00872,-4.2361 -12.28434,-12.0189 -14.4448,-18.8248 -15.83913,0.9236 -16.21234,-7.4324 -18.82485,-14.4448 -8.56826,2.9301 -18.35437,-2.4898 -21.92196,-9.0804 -10.15086,6.754 -18.36831,5.7743 -24.61281,-3.0971"
           id="path11130"
           sodipodi:nodetypes="ccccccc" />
        <path
           style="fill:none;stroke:#1a1a1a;stroke-width:3;stroke-linecap:round;stroke-miterlimit:4;stroke-opacity:1;stroke-dasharray:none;stroke-dashoffset:0"
           d="m 206.95125,1195.6293 c -5.13669,-6.7578 -4.82155,-12.7368 -2.42483,-18.4184 -10.62224,-9.0221 -6.36198,-12.0912 -7.10926,-17.1633 -11.75071,-3.3166 -9.61772,-9.4099 -11.3092,-14.7384 -12.40085,0.7231 -12.69305,-5.819 -14.73845,-11.3092 -6.7083,2.294 -14.3701,-1.9494 -17.16326,-7.1093 -7.94736,5.2879 -14.38101,4.5209 -19.26999,-2.4248"
           id="path11132"
           sodipodi:nodetypes="ccccccc" />
        <path
           sodipodi:nodetypes="ccccccc"
           id="path11118"
           d="m 180.40309,1195.7854 c -3.25419,-4.2812 -3.05455,-8.069 -1.53618,-11.6685 -6.72939,-5.7156 -4.03043,-7.6599 -4.50385,-10.8732 -7.4443,-2.1012 -6.09301,-5.9614 -7.16459,-9.3371 -7.85618,0.4581 -8.04129,-3.6865 -9.33709,-7.1646 -4.24984,1.4533 -9.10373,-1.2349 -10.87325,-4.5038 -5.0348,3.3499 -9.11064,2.864 -12.2079,-1.5362"
           style="fill:none;stroke:#1a1a1a;stroke-width:3;stroke-linecap:round;stroke-miterlimit:4;stroke-opacity:1;stroke-dasharray:none;stroke-dashoffset:0" />
      </g>
      <g
         transform="matrix(-1,0,0,1,1040.5257,-207.89854)"
         id="g11154">
        <path
           style="fill:none;stroke:#1a1a1a;stroke-width:3;stroke-linecap:round;stroke-miterlimit:4;stroke-opacity:1;stroke-dasharray:none;stroke-dashoffset:0"
           d="m 139.0105,1194.5551 250.71428,0"
           id="path11156" />
        <path
           style="fill:none;stroke:#1a1a1a;stroke-width:3;stroke-linecap:round;stroke-miterlimit:4;stroke-opacity:1;stroke-dasharray:none;stroke-dashoffset:0"
           d="m 139.0105,1194.5551 242.1714,-64.8896"
           id="path11158" />
        <path
           style="fill:none;stroke:#1a1a1a;stroke-width:3;stroke-linecap:round;stroke-miterlimit:4;stroke-opacity:1;stroke-dasharray:none;stroke-dashoffset:0"
           d="M 139.0105,1194.5551 356.13545,1069.198"
           id="path11160" />
        <path
           style="fill:none;stroke:#1a1a1a;stroke-width:3;stroke-linecap:round;stroke-miterlimit:4;stroke-opacity:1;stroke-dasharray:none;stroke-dashoffset:0"
           d="M 139.0105,1194.5551 316.29229,1017.2734"
           id="path11162" />
        <path
           style="fill:none;stroke:#1a1a1a;stroke-width:3;stroke-linecap:round;stroke-miterlimit:4;stroke-opacity:1;stroke-dasharray:none;stroke-dashoffset:0"
           d="M 139.0105,1194.5551 264.3676,977.43012"
           id="path11164" />
        <path
           style="fill:none;stroke:#1a1a1a;stroke-width:3;stroke-linecap:round;stroke-miterlimit:4;stroke-opacity:1;stroke-dasharray:none;stroke-dashoffset:0"
           d="M 139.0105,1194.5551 203.90013,952.38369"
           id="path11166" />
        <path
           sodipodi:nodetypes="ccccccc"
           id="path11168"
           d="m 389.72478,1194.5551 c -18.09695,-23.8083 -16.9867,-44.8728 -8.54288,-64.8896 -37.42296,-31.7855 -22.41372,-42.5981 -25.04645,-60.4675 -41.39864,-11.6847 -33.88395,-33.152 -39.84316,-51.9246 -43.68916,2.5475 -44.7186,-20.5009 -51.92469,-39.84328 -23.63387,8.08218 -50.62695,-6.86759 -60.46747,-25.04643 -27.99916,18.6295 -50.66541,15.92737 -67.88963,-8.54287"
           style="fill:none;stroke:#1a1a1a;stroke-width:3;stroke-linecap:round;stroke-miterlimit:4;stroke-opacity:1;stroke-dasharray:none;stroke-dashoffset:0" />
        <path
           id="path11170"
           d="m 136.0105,1194.5551 0,-250.71428"
           style="fill:none;stroke:#1a1a1a;stroke-width:3;stroke-linecap:round;stroke-miterlimit:4;stroke-opacity:1;stroke-dasharray:none;stroke-dashoffset:0" />
        <path
           sodipodi:nodetypes="ccccccc"
           id="path11172"
           d="m 360.25716,1194.7283 c -16.00743,-21.0593 -15.02537,-39.6917 -7.5565,-57.3973 -33.10202,-28.1155 -19.82578,-37.6796 -22.15453,-53.4858 -36.61866,-10.3356 -29.97163,-29.3242 -35.24278,-45.9293 -38.64471,2.2534 -39.55529,-18.1338 -45.92934,-35.2428 -20.90505,7.1489 -44.78145,-6.07469 -53.48576,-22.15456 -24.76632,16.4785 -44.81547,14.08836 -60.05094,-7.55649"
           style="fill:none;stroke:#1a1a1a;stroke-width:3;stroke-linecap:round;stroke-miterlimit:4;stroke-opacity:1;stroke-dasharray:none;stroke-dashoffset:0" />
        <path
           sodipodi:nodetypes="ccccccc"
           id="path11174"
           d="m 329.46977,1194.9092 c -13.82434,-18.1872 -12.97621,-34.2785 -6.52594,-49.5694 -28.58756,-24.2811 -17.12194,-32.5409 -19.13309,-46.1914 -31.6246,-8.926 -25.88409,-25.3249 -30.43636,-39.6654 -33.37433,1.946 -34.16073,-15.6607 -39.66549,-30.4364 -18.05401,6.174 -38.67414,-5.2462 -46.19136,-19.1331 -21.38867,14.2311 -38.70352,12.167 -51.86117,-6.526"
           style="fill:none;stroke:#1a1a1a;stroke-width:3;stroke-linecap:round;stroke-miterlimit:4;stroke-opacity:1;stroke-dasharray:none;stroke-dashoffset:0" />
        <path
           sodipodi:nodetypes="ccccccc"
           id="path11176"
           d="m 300.34652,1195.0804 c -11.75924,-15.4704 -11.03781,-29.1579 -5.55109,-42.1647 -24.31712,-20.6539 -14.56424,-27.6799 -16.27497,-39.2912 -26.90047,-7.5927 -22.01749,-21.5419 -25.88974,-33.7402 -28.38883,1.6554 -29.05775,-13.3213 -33.74021,-25.8898 -15.35708,5.2517 -32.89695,-4.4625 -39.29123,-16.275 -18.19361,12.1053 -32.92194,10.3495 -44.11409,-5.551"
           style="fill:none;stroke:#1a1a1a;stroke-width:3;stroke-linecap:round;stroke-miterlimit:4;stroke-opacity:1;stroke-dasharray:none;stroke-dashoffset:0" />
        <path
           style="fill:none;stroke:#1a1a1a;stroke-width:3;stroke-linecap:round;stroke-miterlimit:4;stroke-opacity:1;stroke-dasharray:none;stroke-dashoffset:0"
           d="m 254.05067,1195.2516 c -8.46926,-11.1417 -7.94967,-20.9994 -3.99801,-30.3668 -17.51371,-14.8749 -10.48948,-19.9349 -11.72158,-28.2973 -19.3743,-5.4682 -15.85747,-15.5144 -18.64634,-24.2995 -20.44625,1.1922 -20.92802,-9.594 -24.30042,-18.6457 -11.06051,3.7823 -23.69309,-3.2139 -28.29839,-11.7211 -13.10343,8.7181 -23.71109,7.4536 -31.77191,-3.9979"
           id="path11178"
           sodipodi:nodetypes="ccccccc" />
        <path
           sodipodi:nodetypes="ccccccc"
           id="path11180"
           d="m 274.28918,1195.2516 c -9.91283,-13.0413 -9.30468,-24.5798 -4.67947,-35.5443 -20.49889,-17.411 -12.2774,-23.3338 -13.7195,-33.122 -22.67663,-6.4004 -18.56036,-18.1595 -21.82459,-28.4425 -23.93129,1.3955 -24.49518,-11.2297 -28.4424,-21.8248 -12.94575,4.4272 -27.73154,-3.7618 -33.12182,-13.7196 -15.33688,10.2046 -27.75261,8.7246 -37.18739,-4.6794"
           style="fill:none;stroke:#1a1a1a;stroke-width:3;stroke-linecap:round;stroke-miterlimit:4;stroke-opacity:1;stroke-dasharray:none;stroke-dashoffset:0" />
        <path
           sodipodi:nodetypes="ccccccc"
           id="path11182"
           d="m 227.03626,1195.5113 c -6.5609,-8.6315 -6.15839,-16.2683 -3.09715,-23.5252 -13.56738,-11.5235 -8.12591,-15.4436 -9.08038,-21.922 -15.00872,-4.2361 -12.28434,-12.0189 -14.4448,-18.8248 -15.83913,0.9236 -16.21234,-7.4324 -18.82485,-14.4448 -8.56826,2.9301 -18.35437,-2.4898 -21.92196,-9.0804 -10.15086,6.754 -18.36831,5.7743 -24.61281,-3.0971"
           style="fill:none;stroke:#1a1a1a;stroke-width:3;stroke-linecap:round;stroke-miterlimit:4;stroke-opacity:1;stroke-dasharray:none;stroke-dashoffset:0" />
        <path
           sodipodi:nodetypes="ccccccc"
           id="path11184"
           d="m 206.95125,1195.6293 c -5.13669,-6.7578 -4.82155,-12.7368 -2.42483,-18.4184 -10.62224,-9.0221 -6.36198,-12.0912 -7.10926,-17.1633 -11.75071,-3.3166 -9.61772,-9.4099 -11.3092,-14.7384 -12.40085,0.7231 -12.69305,-5.819 -14.73845,-11.3092 -6.7083,2.294 -14.3701,-1.9494 -17.16326,-7.1093 -7.94736,5.2879 -14.38101,4.5209 -19.26999,-2.4248"
           style="fill:none;stroke:#1a1a1a;stroke-width:3;stroke-linecap:round;stroke-miterlimit:4;stroke-opacity:1;stroke-dasharray:none;stroke-dashoffset:0" />
        <path
           style="fill:none;stroke:#1a1a1a;stroke-width:3;stroke-linecap:round;stroke-miterlimit:4;stroke-opacity:1;stroke-dasharray:none;stroke-dashoffset:0"
           d="m 180.40309,1195.7854 c -3.25419,-4.2812 -3.05455,-8.069 -1.53618,-11.6685 -6.72939,-5.7156 -4.03043,-7.6599 -4.50385,-10.8732 -7.4443,-2.1012 -6.09301,-5.9614 -7.16459,-9.3371 -7.85618,0.4581 -8.04129,-3.6865 -9.33709,-7.1646 -4.24984,1.4533 -9.10373,-1.2349 -10.87325,-4.5038 -5.0348,3.3499 -9.11064,2.864 -12.2079,-1.5362"
           id="path11186"
           sodipodi:nodetypes="ccccccc" />
      </g>
      <g
         id="g11188"
         transform="matrix(-1,0,0,-1,1040.5257,2181.0134)">
        <path
           id="path11190"
           d="m 139.0105,1194.5551 250.71428,0"
           style="fill:none;stroke:#1a1a1a;stroke-width:3;stroke-linecap:round;stroke-miterlimit:4;stroke-opacity:1;stroke-dasharray:none;stroke-dashoffset:0" />
        <path
           id="path11192"
           d="m 139.0105,1194.5551 242.1714,-64.8896"
           style="fill:none;stroke:#1a1a1a;stroke-width:3;stroke-linecap:round;stroke-miterlimit:4;stroke-opacity:1;stroke-dasharray:none;stroke-dashoffset:0" />
        <path
           id="path11194"
           d="M 139.0105,1194.5551 356.13545,1069.198"
           style="fill:none;stroke:#1a1a1a;stroke-width:3;stroke-linecap:round;stroke-miterlimit:4;stroke-opacity:1;stroke-dasharray:none;stroke-dashoffset:0" />
        <path
           id="path11196"
           d="M 139.0105,1194.5551 316.29229,1017.2734"
           style="fill:none;stroke:#1a1a1a;stroke-width:3;stroke-linecap:round;stroke-miterlimit:4;stroke-opacity:1;stroke-dasharray:none;stroke-dashoffset:0" />
        <path
           id="path11198"
           d="M 139.0105,1194.5551 264.3676,977.43012"
           style="fill:none;stroke:#1a1a1a;stroke-width:3;stroke-linecap:round;stroke-miterlimit:4;stroke-opacity:1;stroke-dasharray:none;stroke-dashoffset:0" />
        <path
           id="path11200"
           d="M 139.0105,1194.5551 203.90013,952.38369"
           style="fill:none;stroke:#1a1a1a;stroke-width:3;stroke-linecap:round;stroke-miterlimit:4;stroke-opacity:1;stroke-dasharray:none;stroke-dashoffset:0" />
        <path
           style="fill:none;stroke:#1a1a1a;stroke-width:3;stroke-linecap:round;stroke-miterlimit:4;stroke-opacity:1;stroke-dasharray:none;stroke-dashoffset:0"
           d="m 389.72478,1194.5551 c -18.09695,-23.8083 -16.9867,-44.8728 -8.54288,-64.8896 -37.42296,-31.7855 -22.41372,-42.5981 -25.04645,-60.4675 -41.39864,-11.6847 -33.88395,-33.152 -39.84316,-51.9246 -43.68916,2.5475 -44.7186,-20.5009 -51.92469,-39.84328 -23.63387,8.08218 -50.62695,-6.86759 -60.46747,-25.04643 -27.99916,18.6295 -50.66541,15.92737 -67.88963,-8.54287"
           id="path11202"
           sodipodi:nodetypes="ccccccc" />
        <path
           style="fill:none;stroke:#1a1a1a;stroke-width:3;stroke-linecap:round;stroke-miterlimit:4;stroke-opacity:1;stroke-dasharray:none;stroke-dashoffset:0"
           d="m 136.0105,1194.5551 0,-250.71428"
           id="path11204" />
        <path
           style="fill:none;stroke:#1a1a1a;stroke-width:3;stroke-linecap:round;stroke-miterlimit:4;stroke-opacity:1;stroke-dasharray:none;stroke-dashoffset:0"
           d="m 360.25716,1194.7283 c -16.00743,-21.0593 -15.02537,-39.6917 -7.5565,-57.3973 -33.10202,-28.1155 -19.82578,-37.6796 -22.15453,-53.4858 -36.61866,-10.3356 -29.97163,-29.3242 -35.24278,-45.9293 -38.64471,2.2534 -39.55529,-18.1338 -45.92934,-35.2428 -20.90505,7.1489 -44.78145,-6.07469 -53.48576,-22.15456 -24.76632,16.4785 -44.81547,14.08836 -60.05094,-7.55649"
           id="path11206"
           sodipodi:nodetypes="ccccccc" />
        <path
           style="fill:none;stroke:#1a1a1a;stroke-width:3;stroke-linecap:round;stroke-miterlimit:4;stroke-opacity:1;stroke-dasharray:none;stroke-dashoffset:0"
           d="m 329.46977,1194.9092 c -13.82434,-18.1872 -12.97621,-34.2785 -6.52594,-49.5694 -28.58756,-24.2811 -17.12194,-32.5409 -19.13309,-46.1914 -31.6246,-8.926 -25.88409,-25.3249 -30.43636,-39.6654 -33.37433,1.946 -34.16073,-15.6607 -39.66549,-30.4364 -18.05401,6.174 -38.67414,-5.2462 -46.19136,-19.1331 -21.38867,14.2311 -38.70352,12.167 -51.86117,-6.526"
           id="path11208"
           sodipodi:nodetypes="ccccccc" />
        <path
           style="fill:none;stroke:#1a1a1a;stroke-width:3;stroke-linecap:round;stroke-miterlimit:4;stroke-opacity:1;stroke-dasharray:none;stroke-dashoffset:0"
           d="m 300.34652,1195.0804 c -11.75924,-15.4704 -11.03781,-29.1579 -5.55109,-42.1647 -24.31712,-20.6539 -14.56424,-27.6799 -16.27497,-39.2912 -26.90047,-7.5927 -22.01749,-21.5419 -25.88974,-33.7402 -28.38883,1.6554 -29.05775,-13.3213 -33.74021,-25.8898 -15.35708,5.2517 -32.89695,-4.4625 -39.29123,-16.275 -18.19361,12.1053 -32.92194,10.3495 -44.11409,-5.551"
           id="path11210"
           sodipodi:nodetypes="ccccccc" />
        <path
           sodipodi:nodetypes="ccccccc"
           id="path11212"
           d="m 254.05067,1195.2516 c -8.46926,-11.1417 -7.94967,-20.9994 -3.99801,-30.3668 -17.51371,-14.8749 -10.48948,-19.9349 -11.72158,-28.2973 -19.3743,-5.4682 -15.85747,-15.5144 -18.64634,-24.2995 -20.44625,1.1922 -20.92802,-9.594 -24.30042,-18.6457 -11.06051,3.7823 -23.69309,-3.2139 -28.29839,-11.7211 -13.10343,8.7181 -23.71109,7.4536 -31.77191,-3.9979"
           style="fill:none;stroke:#1a1a1a;stroke-width:3;stroke-linecap:round;stroke-miterlimit:4;stroke-opacity:1;stroke-dasharray:none;stroke-dashoffset:0" />
        <path
           style="fill:none;stroke:#1a1a1a;stroke-width:3;stroke-linecap:round;stroke-miterlimit:4;stroke-opacity:1;stroke-dasharray:none;stroke-dashoffset:0"
           d="m 274.28918,1195.2516 c -9.91283,-13.0413 -9.30468,-24.5798 -4.67947,-35.5443 -20.49889,-17.411 -12.2774,-23.3338 -13.7195,-33.122 -22.67663,-6.4004 -18.56036,-18.1595 -21.82459,-28.4425 -23.93129,1.3955 -24.49518,-11.2297 -28.4424,-21.8248 -12.94575,4.4272 -27.73154,-3.7618 -33.12182,-13.7196 -15.33688,10.2046 -27.75261,8.7246 -37.18739,-4.6794"
           id="path11214"
           sodipodi:nodetypes="ccccccc" />
        <path
           style="fill:none;stroke:#1a1a1a;stroke-width:3;stroke-linecap:round;stroke-miterlimit:4;stroke-opacity:1;stroke-dasharray:none;stroke-dashoffset:0"
           d="m 227.03626,1195.5113 c -6.5609,-8.6315 -6.15839,-16.2683 -3.09715,-23.5252 -13.56738,-11.5235 -8.12591,-15.4436 -9.08038,-21.922 -15.00872,-4.2361 -12.28434,-12.0189 -14.4448,-18.8248 -15.83913,0.9236 -16.21234,-7.4324 -18.82485,-14.4448 -8.56826,2.9301 -18.35437,-2.4898 -21.92196,-9.0804 -10.15086,6.754 -18.36831,5.7743 -24.61281,-3.0971"
           id="path11216"
           sodipodi:nodetypes="ccccccc" />
        <path
           style="fill:none;stroke:#1a1a1a;stroke-width:3;stroke-linecap:round;stroke-miterlimit:4;stroke-opacity:1;stroke-dasharray:none;stroke-dashoffset:0"
           d="m 206.95125,1195.6293 c -5.13669,-6.7578 -4.82155,-12.7368 -2.42483,-18.4184 -10.62224,-9.0221 -6.36198,-12.0912 -7.10926,-17.1633 -11.75071,-3.3166 -9.61772,-9.4099 -11.3092,-14.7384 -12.40085,0.7231 -12.69305,-5.819 -14.73845,-11.3092 -6.7083,2.294 -14.3701,-1.9494 -17.16326,-7.1093 -7.94736,5.2879 -14.38101,4.5209 -19.26999,-2.4248"
           id="path11218"
           sodipodi:nodetypes="ccccccc" />
        <path
           sodipodi:nodetypes="ccccccc"
           id="path11220"
           d="m 180.40309,1195.7854 c -3.25419,-4.2812 -3.05455,-8.069 -1.53618,-11.6685 -6.72939,-5.7156 -4.03043,-7.6599 -4.50385,-10.8732 -7.4443,-2.1012 -6.09301,-5.9614 -7.16459,-9.3371 -7.85618,0.4581 -8.04129,-3.6865 -9.33709,-7.1646 -4.24984,1.4533 -9.10373,-1.2349 -10.87325,-4.5038 -5.0348,3.3499 -9.11064,2.864 -12.2079,-1.5362"
           style="fill:none;stroke:#1a1a1a;stroke-width:3;stroke-linecap:round;stroke-miterlimit:4;stroke-opacity:1;stroke-dasharray:none;stroke-dashoffset:0" />
      </g>
      <g
         transform="matrix(1,0,0,-1,767.00927,2182.0566)"
         id="g11222">
        <path
           style="fill:none;stroke:#1a1a1a;stroke-width:3;stroke-linecap:round;stroke-miterlimit:4;stroke-opacity:1;stroke-dasharray:none;stroke-dashoffset:0"
           d="m 139.0105,1194.5551 250.71428,0"
           id="path11224" />
        <path
           style="fill:none;stroke:#1a1a1a;stroke-width:3;stroke-linecap:round;stroke-miterlimit:4;stroke-opacity:1;stroke-dasharray:none;stroke-dashoffset:0"
           d="m 139.0105,1194.5551 242.1714,-64.8896"
           id="path11226" />
        <path
           style="fill:none;stroke:#1a1a1a;stroke-width:3;stroke-linecap:round;stroke-miterlimit:4;stroke-opacity:1;stroke-dasharray:none;stroke-dashoffset:0"
           d="M 139.0105,1194.5551 356.13545,1069.198"
           id="path11228" />
        <path
           style="fill:none;stroke:#1a1a1a;stroke-width:3;stroke-linecap:round;stroke-miterlimit:4;stroke-opacity:1;stroke-dasharray:none;stroke-dashoffset:0"
           d="M 139.0105,1194.5551 316.29229,1017.2734"
           id="path11230" />
        <path
           style="fill:none;stroke:#1a1a1a;stroke-width:3;stroke-linecap:round;stroke-miterlimit:4;stroke-opacity:1;stroke-dasharray:none;stroke-dashoffset:0"
           d="M 139.0105,1194.5551 264.3676,977.43012"
           id="path11232" />
        <path
           style="fill:none;stroke:#1a1a1a;stroke-width:3;stroke-linecap:round;stroke-miterlimit:4;stroke-opacity:1;stroke-dasharray:none;stroke-dashoffset:0"
           d="M 139.0105,1194.5551 203.90013,952.38369"
           id="path11234" />
        <path
           sodipodi:nodetypes="ccccccc"
           id="path11236"
           d="m 389.72478,1194.5551 c -18.09695,-23.8083 -16.9867,-44.8728 -8.54288,-64.8896 -37.42296,-31.7855 -22.41372,-42.5981 -25.04645,-60.4675 -41.39864,-11.6847 -33.88395,-33.152 -39.84316,-51.9246 -43.68916,2.5475 -44.7186,-20.5009 -51.92469,-39.84328 -23.63387,8.08218 -50.62695,-6.86759 -60.46747,-25.04643 -27.99916,18.6295 -50.66541,15.92737 -67.88963,-8.54287"
           style="fill:none;stroke:#1a1a1a;stroke-width:3;stroke-linecap:round;stroke-miterlimit:4;stroke-opacity:1;stroke-dasharray:none;stroke-dashoffset:0" />
        <path
           id="path11238"
           d="m 136.0105,1194.5551 0,-250.71428"
           style="fill:none;stroke:#1a1a1a;stroke-width:3;stroke-linecap:round;stroke-miterlimit:4;stroke-opacity:1;stroke-dasharray:none;stroke-dashoffset:0" />
        <path
           sodipodi:nodetypes="ccccccc"
           id="path11240"
           d="m 360.25716,1194.7283 c -16.00743,-21.0593 -15.02537,-39.6917 -7.5565,-57.3973 -33.10202,-28.1155 -19.82578,-37.6796 -22.15453,-53.4858 -36.61866,-10.3356 -29.97163,-29.3242 -35.24278,-45.9293 -38.64471,2.2534 -39.55529,-18.1338 -45.92934,-35.2428 -20.90505,7.1489 -44.78145,-6.07469 -53.48576,-22.15456 -24.76632,16.4785 -44.81547,14.08836 -60.05094,-7.55649"
           style="fill:none;stroke:#1a1a1a;stroke-width:3;stroke-linecap:round;stroke-miterlimit:4;stroke-opacity:1;stroke-dasharray:none;stroke-dashoffset:0" />
        <path
           sodipodi:nodetypes="ccccccc"
           id="path11242"
           d="m 329.46977,1194.9092 c -13.82434,-18.1872 -12.97621,-34.2785 -6.52594,-49.5694 -28.58756,-24.2811 -17.12194,-32.5409 -19.13309,-46.1914 -31.6246,-8.926 -25.88409,-25.3249 -30.43636,-39.6654 -33.37433,1.946 -34.16073,-15.6607 -39.66549,-30.4364 -18.05401,6.174 -38.67414,-5.2462 -46.19136,-19.1331 -21.38867,14.2311 -38.70352,12.167 -51.86117,-6.526"
           style="fill:none;stroke:#1a1a1a;stroke-width:3;stroke-linecap:round;stroke-miterlimit:4;stroke-opacity:1;stroke-dasharray:none;stroke-dashoffset:0" />
        <path
           sodipodi:nodetypes="ccccccc"
           id="path11244"
           d="m 300.34652,1195.0804 c -11.75924,-15.4704 -11.03781,-29.1579 -5.55109,-42.1647 -24.31712,-20.6539 -14.56424,-27.6799 -16.27497,-39.2912 -26.90047,-7.5927 -22.01749,-21.5419 -25.88974,-33.7402 -28.38883,1.6554 -29.05775,-13.3213 -33.74021,-25.8898 -15.35708,5.2517 -32.89695,-4.4625 -39.29123,-16.275 -18.19361,12.1053 -32.92194,10.3495 -44.11409,-5.551"
           style="fill:none;stroke:#1a1a1a;stroke-width:3;stroke-linecap:round;stroke-miterlimit:4;stroke-opacity:1;stroke-dasharray:none;stroke-dashoffset:0" />
        <path
           style="fill:none;stroke:#1a1a1a;stroke-width:3;stroke-linecap:round;stroke-miterlimit:4;stroke-opacity:1;stroke-dasharray:none;stroke-dashoffset:0"
           d="m 254.05067,1195.2516 c -8.46926,-11.1417 -7.94967,-20.9994 -3.99801,-30.3668 -17.51371,-14.8749 -10.48948,-19.9349 -11.72158,-28.2973 -19.3743,-5.4682 -15.85747,-15.5144 -18.64634,-24.2995 -20.44625,1.1922 -20.92802,-9.594 -24.30042,-18.6457 -11.06051,3.7823 -23.69309,-3.2139 -28.29839,-11.7211 -13.10343,8.7181 -23.71109,7.4536 -31.77191,-3.9979"
           id="path11246"
           sodipodi:nodetypes="ccccccc" />
        <path
           sodipodi:nodetypes="ccccccc"
           id="path11248"
           d="m 274.28918,1195.2516 c -9.91283,-13.0413 -9.30468,-24.5798 -4.67947,-35.5443 -20.49889,-17.411 -12.2774,-23.3338 -13.7195,-33.122 -22.67663,-6.4004 -18.56036,-18.1595 -21.82459,-28.4425 -23.93129,1.3955 -24.49518,-11.2297 -28.4424,-21.8248 -12.94575,4.4272 -27.73154,-3.7618 -33.12182,-13.7196 -15.33688,10.2046 -27.75261,8.7246 -37.18739,-4.6794"
           style="fill:none;stroke:#1a1a1a;stroke-width:3;stroke-linecap:round;stroke-miterlimit:4;stroke-opacity:1;stroke-dasharray:none;stroke-dashoffset:0" />
        <path
           sodipodi:nodetypes="ccccccc"
           id="path11250"
           d="m 227.03626,1195.5113 c -6.5609,-8.6315 -6.15839,-16.2683 -3.09715,-23.5252 -13.56738,-11.5235 -8.12591,-15.4436 -9.08038,-21.922 -15.00872,-4.2361 -12.28434,-12.0189 -14.4448,-18.8248 -15.83913,0.9236 -16.21234,-7.4324 -18.82485,-14.4448 -8.56826,2.9301 -18.35437,-2.4898 -21.92196,-9.0804 -10.15086,6.754 -18.36831,5.7743 -24.61281,-3.0971"
           style="fill:none;stroke:#1a1a1a;stroke-width:3;stroke-linecap:round;stroke-miterlimit:4;stroke-opacity:1;stroke-dasharray:none;stroke-dashoffset:0" />
        <path
           sodipodi:nodetypes="ccccccc"
           id="path11252"
           d="m 206.95125,1195.6293 c -5.13669,-6.7578 -4.82155,-12.7368 -2.42483,-18.4184 -10.62224,-9.0221 -6.36198,-12.0912 -7.10926,-17.1633 -11.75071,-3.3166 -9.61772,-9.4099 -11.3092,-14.7384 -12.40085,0.7231 -12.69305,-5.819 -14.73845,-11.3092 -6.7083,2.294 -14.3701,-1.9494 -17.16326,-7.1093 -7.94736,5.2879 -14.38101,4.5209 -19.26999,-2.4248"
           style="fill:none;stroke:#1a1a1a;stroke-width:3;stroke-linecap:round;stroke-miterlimit:4;stroke-opacity:1;stroke-dasharray:none;stroke-dashoffset:0" />
        <path
           style="fill:none;stroke:#1a1a1a;stroke-width:3;stroke-linecap:round;stroke-miterlimit:4;stroke-opacity:1;stroke-dasharray:none;stroke-dashoffset:0"
           d="m 180.40309,1195.7854 c -3.25419,-4.2812 -3.05455,-8.069 -1.53618,-11.6685 -6.72939,-5.7156 -4.03043,-7.6599 -4.50385,-10.8732 -7.4443,-2.1012 -6.09301,-5.9614 -7.16459,-9.3371 -7.85618,0.4581 -8.04129,-3.6865 -9.33709,-7.1646 -4.24984,1.4533 -9.10373,-1.2349 -10.87325,-4.5038 -5.0348,3.3499 -9.11064,2.864 -12.2079,-1.5362"
           id="path11254"
           sodipodi:nodetypes="ccccccc" />
      </g>
    </g>
  </g>
</svg>
